<svg xmlns="http://www.w3.org/2000/svg" version="1.1" viewBox="-5.0 -10.0 110.0 135.0">
    <path d="m14.48 3.9219h71.039c5.8125 0 10.559 4.7461 10.559 10.559v71.039c0 5.8125-4.7461 10.559-10.559 10.559h-71.039c-5.8125 0-10.559-4.7461-10.559-10.559v-71.039c0-5.8164 4.7422-10.559 10.559-10.559zm38.398 5.7578v80.641h32.641c2.6328 0 4.8008-2.1641 4.8008-4.8008v-71.039c0-2.6367-2.1641-4.8008-4.8008-4.8008zm-5.7578 80.641v-80.641h-32.641c-2.6367 0-4.8008 2.1641-4.8008 4.8008v71.039c0 2.6328 2.1641 4.8008 4.8008 4.8008z"
          fill-rule="evenodd"/>
</svg>