<svg xmlns="http://www.w3.org/2000/svg" version="1.1" viewBox="-5.0 -10.0 110.0 135.0">
    <path d="m42.34 96.379c-4.1133 0.42188-16.91-4.2578-12.633-9.6523 0.58594-0.58594 1.3789-0.91797 2.2109-0.91797 0.82812 0 1.6211 0.33203 2.207 0.91797 4.5977 4.3867 11.836 4.3867 16.434 0l36.168-36.168c4.2266-4.2812 4.4883-11.086 0.60156-15.68-3.8906-4.5938-10.641-5.457-15.562-1.9922 2.0898 1.6445 3.3828 4.1016 3.5547 6.7539 0.17578 2.6523-0.78516 5.2539-2.6445 7.1562l-6.8125 6.8125v0.003906c-2.0234 2.0117-5.2812 2.043-7.3398 0.066407l-1.5547 1.5547c-1.2227 1.2227-3.1992 1.2227-4.4219 0-1.2188-1.2188-1.2188-3.1992 0-4.418l1.5547-1.5547-3.3633-3.3633-1.5547 1.5547c-1.2188 1.2188-3.1992 1.2188-4.418 0-1.2227-1.2227-1.2227-3.1992 0-4.4219l1.5547-1.5547c-1.9766-2.0547-1.9492-5.3164 0.066407-7.3398l6.8164-6.8164v0.003907c1.9414-1.8828 4.6016-2.8398 7.3008-2.6289 2.6992 0.21094 5.1758 1.5742 6.8047 3.7383 17.098-13.461 39.484 9.7266 23.922 26.457l-36.254 36.254c-3.3438 3.3633-7.8945 5.2461-12.637 5.2344zm20.531-47.188zm-11.352-11.352 10.637 10.637 6.0977-6.0977h0.003906c1.1484-1.1484 1.1484-3.0117 0-4.1602-0.027343-0.019531-3.2266-3.2305-3.25-3.25l-3.2266-3.2266c-1.1484-1.1484-3.0117-1.1484-4.1602 0zm-29.82 37.746c-4.7461 0.027343-9.3086-1.8242-12.691-5.1562-3.3828-3.3281-5.3047-7.8633-5.3516-12.609-0.042969-4.7461 1.7969-9.3164 5.1133-12.711l36.254-36.254c3.3633-3.3281 7.9023-5.1992 12.637-5.1992 4.7305 0 9.2695 1.8711 12.633 5.1992 1.2188 1.2227 1.2188 3.1992 0 4.418-1.2188 1.2227-3.1992 1.2227-4.418 0-4.5977-4.3867-11.836-4.3867-16.434 0l-36.168 36.168c-4.2266 4.2812-4.4883 11.086-0.60156 15.68 3.8906 4.5938 10.641 5.457 15.562 1.9922-2.0898-1.6445-3.3828-4.1016-3.5547-6.7539-0.17578-2.6523 0.78906-5.2539 2.6445-7.1562l6.8125-6.8125v-0.003906c2.0469-2.0391 5.3633-2.0391 7.4102 0l12.066 12.066c2.0391 2.0469 2.0391 5.3594 0 7.4102l-6.8125 6.8125h-0.003906c-1.9414 1.8828-4.6016 2.8398-7.3008 2.6289-2.6992-0.21094-5.1758-1.5742-6.8047-3.7383-3.0898 2.5742-6.9727 3.9922-10.992 4.0195zm13.293-10.555 3.2266 3.2266c1.1484 1.1484 3.0117 1.1484 4.1602 0l6.0977-6.0977-10.637-10.637-6.0977 6.0977c-1.1484 1.1484-1.1484 3.0117 0 4.1602 0.023437 0.015625 3.2344 3.2344 3.25 3.25zm16.41-1.375z"/>
</svg>