<svg xmlns="http://www.w3.org/2000/svg" version="1.1" viewBox="-5.0 -10.0 110.0 135.0">
    <path d="m85.18 45.254v-33.262h-70.359v33.262h32.055v7.2344c0 3.4531-2.7969 6.25-6.25 6.25h-22.332v17.293c-2.3828 1.3398-3.8438 4.1211-3.0859 7.1953 0.53906 2.1875 2.3086 3.9922 4.4922 4.5625 4.2812 1.1133 8.1289-2.0859 8.1289-6.1875 0-2.3984-1.3359-4.4648-3.2852-5.5664v-4.793c0-3.4531 2.7969-6.25 6.25-6.25h16.082v11.043c-2.3828 1.3398-3.8438 4.1211-3.0859 7.1914 0.53906 2.1875 2.3086 3.9922 4.4922 4.5625 4.2812 1.1133 8.1289-2.0859 8.1289-6.1875 0-2.3984-1.3359-4.4648-3.2852-5.5664v-11.043h16.082c3.4531 0 6.25 2.7969 6.25 6.25v4.793c-2.3828 1.3398-3.8398 4.1211-3.0859 7.1914 0.53906 2.1875 2.3086 3.9922 4.4922 4.5586 4.2812 1.1133 8.1289-2.0859 8.1289-6.1875 0-2.3984-1.3359-4.4648-3.2891-5.5664v-17.293h-22.332c-3.4531 0-6.25-2.7969-6.25-6.25v-7.2344zm-64.109-27.012h57.859v14.508c0 3.4531-2.7969 6.25-6.25 6.25l-45.359 0.003906c-3.4531 0-6.25-2.7969-6.25-6.25z"/>
    <path d="m43.02 25.496h28.453v6.25h-28.453z"/>
</svg>