<svg xmlns="http://www.w3.org/2000/svg" version="1.1" viewBox="-5.0 -10.0 110.0 135.0">
 <path d="m77.422 12.422h-54.844c-2.5898 0-4.6875 2.0977-4.6875 4.6875v16.973c0 0.86328 0.69922 1.5625 1.5625 1.5625h61.094c0.86328 0 1.5625-0.69922 1.5625-1.5625v-16.973c0-2.5898-2.0977-4.6875-4.6875-4.6875zm-45.766 18.438c-2.6914 0-4.8789-2.1875-4.8789-4.8789 0-2.6875 2.1914-4.875 4.8789-4.875 2.6914 0 4.8789 2.1875 4.8789 4.875 0 2.6914-2.1875 4.8789-4.8789 4.8789z"/>
 <path d="m31.656 24.23c-0.96875 0-1.7539 0.78516-1.7539 1.75 0 0.96875 0.78906 1.7539 1.7539 1.7539 0.96875 0 1.7539-0.78906 1.7539-1.7539 0-0.96875-0.78516-1.75-1.7539-1.75z"/>
 <path d="m31.656 48.242c-0.96875 0-1.7539 0.78906-1.7539 1.7539 0 0.96875 0.78906 1.7539 1.7539 1.7539 0.96875 0 1.7539-0.78906 1.7539-1.7539s-0.78516-1.7539-1.7539-1.7539z"/>
 <path d="m17.891 41.895v16.203c0 0.86328 0.69922 1.5625 1.5625 1.5625h61.094c0.86328 0 1.5625-0.69922 1.5625-1.5625v-16.203c0-0.86328-0.69922-1.5625-1.5625-1.5625h-61.094c-0.86328 0-1.5625 0.69922-1.5625 1.5625zm13.766 12.984c-2.6914 0-4.8789-2.1875-4.8789-4.8789s2.1914-4.8789 4.8789-4.8789c2.6914 0 4.8789 2.1875 4.8789 4.8789s-2.1875 4.8789-4.8789 4.8789z"/>
 <path d="m17.891 65.914v16.977c0 2.5898 2.0977 4.6875 4.6875 4.6875h54.844c2.5898 0 4.6875-2.0977 4.6875-4.6875v-16.977c0-0.86328-0.69922-1.5625-1.5625-1.5625h-61.094c-0.86328 0-1.5625 0.69922-1.5625 1.5625zm13.766 12.98c-2.6914 0-4.8789-2.1875-4.8789-4.8789s2.1914-4.8789 4.8789-4.8789c2.6914 0 4.8789 2.1875 4.8789 4.8789s-2.1875 4.8789-4.8789 4.8789z"/>
 <path d="m31.656 72.262c-0.96875 0-1.7539 0.78906-1.7539 1.7539 0 0.96875 0.78906 1.7539 1.7539 1.7539 0.96875 0 1.7539-0.78906 1.7539-1.7539 0-0.96875-0.78516-1.7539-1.7539-1.7539z"/>
</svg>