<svg xmlns:inkscape="http://www.inkscape.org/namespaces/inkscape"
     xmlns:sodipodi="http://sodipodi.sourceforge.net/DTD/sodipodi-0.dtd" xmlns="http://www.w3.org/2000/svg"
     xmlns:svg="http://www.w3.org/2000/svg" viewBox="0 0 8.4666595 10.583324375" version="1.1" x="0px" y="0px">
    <g transform="translate(-118.26873,-113.24165)">
        <path style="color:#000000;"
              d="m 119.5918,117.21094 a 0.2645835,0.2645835 0 0 0 -0.26563,0.26367 0.2645835,0.2645835 0 0 0 0.26563,0.26562 h 5.82031 a 0.2645835,0.2645835 0 0 0 0.26562,-0.26562 0.2645835,0.2645835 0 0 0 -0.26562,-0.26367 z"
              fill="#000000" stroke-linecap="round" stroke-linejoin="round"/>
        <path style="color:#000000;"
              d="m 120.12109,114.30078 c -0.43516,0 -0.79492,0.35781 -0.79492,0.79297 v 4.76172 c 0,0.43517 0.35976,0.79492 0.79492,0.79492 h 4.76172 c 0.43517,0 0.79492,-0.35975 0.79492,-0.79492 v -4.76172 c 0,-0.43516 -0.35975,-0.79297 -0.79492,-0.79297 z m 0,0.5293 h 4.76172 c 0.15117,0 0.26563,0.11251 0.26563,0.26367 v 4.76172 c 0,0.15117 -0.11446,0.26562 -0.26563,0.26562 h -4.76172 c -0.15115,0 -0.26562,-0.11445 -0.26562,-0.26562 v -4.76172 c 0,-0.15116 0.11447,-0.26367 0.26562,-0.26367 z"
              fill="#000000" stroke-linecap="round" stroke-linejoin="round"/>
        <path style="color:#000000;"
              d="m 119.5918,118.66602 a 0.2645835,0.2645835 0 0 0 -0.26563,0.26367 0.2645835,0.2645835 0 0 0 0.26563,0.26562 h 5.82031 a 0.2645835,0.2645835 0 0 0 0.26562,-0.26562 0.2645835,0.2645835 0 0 0 -0.26562,-0.26367 z"
              fill="#000000" stroke-linecap="round" stroke-linejoin="round"/>
        <path style="color:#000000;" d="m 123.29492,116.15234 v 4.23243 h 0.5293 v -4.23243 z" fill="#000000"
              stroke-linecap="round" stroke-linejoin="round"/>
        <path style="color:#000000;" d="m 121.17969,116.15234 v 4.23243 h 0.52929 v -4.23243 z" fill="#000000"
              stroke-linecap="round" stroke-linejoin="round"/>
        <path style="color:#000000;"
              d="m 119.5918,115.75586 a 0.2645835,0.2645835 0 0 0 -0.26563,0.26367 0.2645835,0.2645835 0 0 0 0.26563,0.26563 h 5.82031 a 0.2645835,0.2645835 0 0 0 0.26562,-0.26563 0.2645835,0.2645835 0 0 0 -0.26562,-0.26367 z"
              fill="#000000" stroke-linecap="round" stroke-linejoin="round"/>
    </g>
</svg>